<svg xmlns="http://www.w3.org/2000/svg" xmlns:xlink="http://www.w3.org/1999/xlink" width="1920" zoomAndPan="magnify" viewBox="0 0 1440 809.999993" height="1080" preserveAspectRatio="xMidYMid meet" version="1.0"><defs><clipPath id="711d91a48f"><path d="M 597 396 L 649 396 L 649 559 L 597 559 Z M 597 396 " clip-rule="nonzero"/></clipPath><clipPath id="e7c3358435"><path d="M 797 396 L 849 396 L 849 559 L 797 559 Z M 797 396 " clip-rule="nonzero"/></clipPath></defs><rect x="-144" width="1728" fill="#ffffff" y="-80.999999" height="971.999992" fill-opacity="1"/><g clip-path="url(#711d91a48f)"><path fill="#8bc548" d="M 616.089844 558.066406 C 623.371094 550.148438 644.855469 524.523438 648.859375 493.117188 C 647.265625 483.699219 645.855469 474.59375 644.582031 465.71875 C 644.445312 464.71875 644.308594 463.761719 644.171875 462.761719 C 643.671875 459.347656 643.214844 455.980469 642.761719 452.660156 C 642.578125 451.15625 642.398438 449.65625 642.167969 448.199219 C 641.804688 445.46875 641.488281 442.738281 641.167969 440.097656 C 640.941406 438.367188 640.757812 436.683594 640.578125 434.953125 C 640.304688 432.585938 640.03125 430.21875 639.800781 427.898438 C 639.621094 426.078125 639.4375 424.347656 639.257812 422.574219 C 639.027344 420.390625 638.847656 418.25 638.621094 416.113281 C 638.4375 414.335938 638.300781 412.5625 638.164062 410.832031 C 637.980469 408.785156 637.84375 406.734375 637.664062 404.734375 C 637.527344 403.003906 637.390625 401.273438 637.300781 399.589844 C 637.253906 398.679688 637.164062 397.769531 637.117188 396.859375 C 625.191406 402.003906 596.976562 420.34375 596.976562 478.738281 C 596.929688 536.265625 610.628906 553.46875 616.089844 558.066406 Z M 616.089844 558.066406 " fill-opacity="1" fill-rule="nonzero"/></g><g clip-path="url(#e7c3358435)"><path fill="#8bc548" d="M 849.070312 478.691406 C 849.070312 420.296875 820.808594 401.957031 808.835938 396.8125 C 808.792969 397.769531 808.699219 398.769531 808.65625 399.726562 C 808.5625 401.230469 808.472656 402.777344 808.335938 404.324219 C 808.199219 406.507812 808.019531 408.738281 807.835938 411.015625 C 807.699219 412.5625 807.5625 414.109375 807.425781 415.65625 C 807.199219 418.023438 806.972656 420.390625 806.742188 422.800781 C 806.605469 424.347656 806.425781 425.898438 806.289062 427.488281 C 806.015625 429.992188 805.742188 432.542969 805.421875 435.136719 C 805.242188 436.683594 805.058594 438.230469 804.878906 439.777344 C 804.558594 442.464844 804.195312 445.195312 803.832031 447.96875 C 803.648438 449.472656 803.464844 450.972656 803.238281 452.523438 C 802.875 455.390625 802.417969 458.347656 802.011719 461.304688 C 801.78125 462.808594 801.601562 464.265625 801.371094 465.765625 C 800.917969 468.90625 800.417969 472.09375 799.917969 475.277344 C 799.6875 476.6875 799.507812 478.007812 799.28125 479.417969 C 798.597656 483.789062 797.867188 488.203125 797.09375 492.664062 C 797.050781 492.800781 797.050781 492.984375 797.003906 493.117188 C 801.144531 524.660156 822.628906 550.191406 829.910156 558.066406 C 835.28125 553.605469 849.070312 536.492188 849.070312 478.691406 Z M 849.070312 478.691406 " fill-opacity="1" fill-rule="nonzero"/></g><path fill="#8bc548" d="M 771.972656 522.476562 L 782.484375 522.476562 C 784.714844 510.777344 786.445312 501.21875 787.902344 492.574219 C 787.902344 492.4375 787.945312 492.300781 787.945312 492.207031 C 794.589844 453.296875 798.6875 419.023438 800.054688 390.351562 C 803.695312 320.582031 791.722656 298.140625 788.21875 293.136719 L 657.6875 293.136719 C 654.277344 297.960938 642.261719 320.351562 645.855469 390.351562 C 647.175781 415.609375 650.453125 445.011719 655.640625 477.917969 C 656.371094 482.605469 657.144531 487.382812 657.960938 492.253906 C 659.644531 501.859375 661.511719 511.960938 663.515625 522.476562 Z M 723 327.40625 C 746.394531 327.40625 765.417969 346.429688 765.417969 369.824219 C 765.417969 393.21875 746.394531 412.289062 723 412.289062 C 699.605469 412.289062 680.535156 393.265625 680.535156 369.824219 C 680.535156 346.429688 699.605469 327.40625 723 327.40625 Z M 698.558594 488.203125 C 696.601562 488.203125 694.828125 486.929688 694.234375 485.0625 L 680.808594 443.417969 C 680.355469 442.054688 680.628906 440.507812 681.445312 439.324219 C 682.3125 438.140625 683.675781 437.457031 685.132812 437.457031 L 760.867188 437.457031 C 762.324219 437.457031 763.6875 438.140625 764.554688 439.324219 C 765.417969 440.507812 765.644531 442.007812 765.191406 443.417969 L 751.765625 485.0625 C 751.171875 486.929688 749.398438 488.203125 747.441406 488.203125 Z M 698.558594 488.203125 " fill-opacity="1" fill-rule="nonzero"/><path fill="#8bc548" d="M 691.367188 446.515625 L 701.882812 479.101562 L 744.117188 479.101562 L 754.632812 446.515625 Z M 691.367188 446.515625 " fill-opacity="1" fill-rule="nonzero"/><path fill="#8bc548" d="M 784.304688 284.035156 C 779.800781 269.605469 765.144531 231.238281 733.785156 215.492188 C 726.914062 212.125 718.996094 212.125 712.167969 215.492188 C 680.855469 231.191406 666.15625 269.605469 661.601562 284.035156 Z M 784.304688 284.035156 " fill-opacity="1" fill-rule="nonzero"/><path fill="#8bc548" d="M 723 403.1875 C 741.386719 403.1875 756.316406 388.210938 756.316406 369.824219 C 756.316406 351.4375 741.386719 336.507812 723 336.507812 C 704.613281 336.507812 689.640625 351.484375 689.640625 369.824219 C 689.640625 388.167969 704.613281 403.1875 723 403.1875 Z M 723 403.1875 " fill-opacity="1" fill-rule="nonzero"/><path fill="#8bc548" d="M 717.765625 575.859375 C 720.679688 577.453125 722.363281 577.636719 722.953125 577.636719 C 724.230469 577.636719 726.140625 577 728.1875 575.90625 C 738.609375 570.355469 745.300781 558.65625 745.300781 546.140625 L 745.300781 531.621094 L 700.699219 531.621094 L 700.699219 546.140625 C 700.699219 558.613281 707.390625 570.308594 717.765625 575.859375 Z M 717.765625 575.859375 " fill-opacity="1" fill-rule="nonzero"/><path fill="#8bc548" d="M 767.421875 561.753906 L 767.421875 531.578125 L 754.402344 531.578125 L 754.402344 546.097656 C 754.402344 562.160156 746.03125 576.679688 732.511719 583.871094 C 729.054688 585.738281 725.820312 586.691406 722.953125 586.691406 C 720.132812 586.691406 716.945312 585.738281 713.441406 583.824219 C 699.96875 576.589844 691.550781 562.117188 691.550781 546.050781 L 691.550781 531.53125 L 678.535156 531.53125 L 678.535156 561.707031 C 678.535156 586.285156 691.230469 608.3125 711.667969 619.28125 C 716.035156 621.648438 719.996094 622.921875 722.910156 622.921875 C 725.914062 622.921875 729.828125 621.648438 734.195312 619.28125 C 754.722656 608.355469 767.421875 586.328125 767.421875 561.753906 Z M 767.421875 561.753906 " fill-opacity="1" fill-rule="nonzero"/></svg>