<svg id="Grupo_3" data-name="Grupo 3" xmlns="http://www.w3.org/2000/svg" width="97.964" height="76.888" viewBox="0 0 97.964 76.888">
  <path id="Trazado_6" data-name="Trazado 6" d="M6032.959-6611.866h-13.8v2.672h15.14l1.336-1.335v-13.656h-2.671Z" transform="translate(-5953.103 6656.544)" fill="#fff"/>
  <path id="Trazado_7" data-name="Trazado 7" d="M5959.391-6647.912v13.656h2.672v-12.32h13.8v-2.671h-15.14Z" transform="translate(-5943.954 6660.38)" fill="#fff"/>
  <path id="Trazado_8" data-name="Trazado 8" d="M5994.183-6607.413h2.205l1.338-1.1v-1.925h31.188l1.336-1.337v-42.748l-1.336-1.336h-5.046v-3.178h2.671v-2.505l-.848-.847h-5.427l-.848.847v2.505h2.671v3.178h-27.534v-3.178h2.67v-2.505l-.849-.847h-5.426l-.848.847v2.505h2.671v3.178h-27.535v-3.178h2.671v-2.505l-.848-.847h-5.427l-.848.847v2.505h2.67v3.178h-8.164l-1.335,1.336v42.748l1.335,1.337h31.189v1.925l1.338,1.1h2.2v19.236h-30.131v2.672h74.568v-2.672h-40.279Zm-37.554-45.776h70.95v40.075h-70.95Zm35.178,45.776h.594v19.236h-.594Z" transform="translate(-5943.122 6662.393)" fill="#fff"/>
  <rect id="Rectángulo_7" data-name="Rectángulo 7" width="7.57" height="2.672" transform="translate(16.772 44.381)" fill="#fff"/>
  <rect id="Rectángulo_8" data-name="Rectángulo 8" width="3.117" height="2.672" transform="translate(26.866 44.381)" fill="#fff"/>
  <rect id="Rectángulo_9" data-name="Rectángulo 9" width="7.57" height="2.672" transform="translate(67.982 11.133)" fill="#fff"/>
  <rect id="Rectángulo_10" data-name="Rectángulo 10" width="3.117" height="2.672" transform="translate(78.075 11.133)" fill="#fff"/>
  <rect id="Rectángulo_11" data-name="Rectángulo 11" width="3.859" height="2.672" transform="translate(94.105 74.216)" fill="#fff"/>
  <rect id="Rectángulo_12" data-name="Rectángulo 12" width="13.656" height="2.672" transform="translate(0 74.216)" fill="#fff"/>
</svg>
